<mxfile host="app.diagrams.net" agent="Mozilla/5.0 (Macintosh; Intel Mac OS X 10_15_7) AppleWebKit/537.36 (KHTML, like Gecko) Chrome/132.0.0.0 Safari/537.36" version="26.0.16">
  <diagram id="C5RBs43oDa-KdzZeNtuy" name="Page-1">
    <mxGraphModel dx="1306" dy="1225" grid="0" gridSize="10" guides="1" tooltips="1" connect="1" arrows="1" fold="1" page="0" pageScale="1" pageWidth="827" pageHeight="1169" math="0" shadow="0">
      <root>
        <mxCell id="WIyWlLk6GJQsqaUBKTNV-0" />
        <mxCell id="WIyWlLk6GJQsqaUBKTNV-1" parent="WIyWlLk6GJQsqaUBKTNV-0" />
        <mxCell id="ijvyQktE0aWH16FiOcsG-1" value="" style="strokeWidth=2;html=1;shape=mxgraph.flowchart.start_2;whiteSpace=wrap;aspect=fixed;" parent="WIyWlLk6GJQsqaUBKTNV-1" vertex="1">
          <mxGeometry x="1191.5" y="634" width="50" height="50" as="geometry" />
        </mxCell>
        <mxCell id="WIyWlLk6GJQsqaUBKTNV-2" value="" style="rounded=0;html=1;jettySize=auto;orthogonalLoop=1;fontSize=11;endArrow=block;endFill=0;endSize=8;strokeWidth=1;shadow=0;labelBackgroundColor=none;edgeStyle=orthogonalEdgeStyle;" parent="WIyWlLk6GJQsqaUBKTNV-1" source="WIyWlLk6GJQsqaUBKTNV-3" target="WIyWlLk6GJQsqaUBKTNV-6" edge="1">
          <mxGeometry relative="1" as="geometry" />
        </mxCell>
        <mxCell id="WIyWlLk6GJQsqaUBKTNV-3" value="Lamp doesn&#39;t work" style="rounded=1;whiteSpace=wrap;html=1;fontSize=12;glass=0;strokeWidth=1;shadow=0;" parent="WIyWlLk6GJQsqaUBKTNV-1" vertex="1">
          <mxGeometry x="160" y="80" width="120" height="40" as="geometry" />
        </mxCell>
        <mxCell id="WIyWlLk6GJQsqaUBKTNV-4" value="Yes" style="rounded=0;html=1;jettySize=auto;orthogonalLoop=1;fontSize=11;endArrow=block;endFill=0;endSize=8;strokeWidth=1;shadow=0;labelBackgroundColor=none;edgeStyle=orthogonalEdgeStyle;" parent="WIyWlLk6GJQsqaUBKTNV-1" source="WIyWlLk6GJQsqaUBKTNV-6" target="WIyWlLk6GJQsqaUBKTNV-10" edge="1">
          <mxGeometry y="20" relative="1" as="geometry">
            <mxPoint as="offset" />
          </mxGeometry>
        </mxCell>
        <mxCell id="WIyWlLk6GJQsqaUBKTNV-5" value="No" style="edgeStyle=orthogonalEdgeStyle;rounded=0;html=1;jettySize=auto;orthogonalLoop=1;fontSize=11;endArrow=block;endFill=0;endSize=8;strokeWidth=1;shadow=0;labelBackgroundColor=none;" parent="WIyWlLk6GJQsqaUBKTNV-1" source="WIyWlLk6GJQsqaUBKTNV-6" target="WIyWlLk6GJQsqaUBKTNV-7" edge="1">
          <mxGeometry y="10" relative="1" as="geometry">
            <mxPoint as="offset" />
          </mxGeometry>
        </mxCell>
        <mxCell id="WIyWlLk6GJQsqaUBKTNV-6" value="Lamp&lt;br&gt;plugged in?" style="rhombus;whiteSpace=wrap;html=1;shadow=0;fontFamily=Helvetica;fontSize=12;align=center;strokeWidth=1;spacing=6;spacingTop=-4;" parent="WIyWlLk6GJQsqaUBKTNV-1" vertex="1">
          <mxGeometry x="170" y="170" width="100" height="80" as="geometry" />
        </mxCell>
        <mxCell id="WIyWlLk6GJQsqaUBKTNV-7" value="Plug in lamp" style="rounded=1;whiteSpace=wrap;html=1;fontSize=12;glass=0;strokeWidth=1;shadow=0;" parent="WIyWlLk6GJQsqaUBKTNV-1" vertex="1">
          <mxGeometry x="320" y="190" width="120" height="40" as="geometry" />
        </mxCell>
        <mxCell id="WIyWlLk6GJQsqaUBKTNV-8" value="No" style="rounded=0;html=1;jettySize=auto;orthogonalLoop=1;fontSize=11;endArrow=block;endFill=0;endSize=8;strokeWidth=1;shadow=0;labelBackgroundColor=none;edgeStyle=orthogonalEdgeStyle;" parent="WIyWlLk6GJQsqaUBKTNV-1" source="WIyWlLk6GJQsqaUBKTNV-10" target="WIyWlLk6GJQsqaUBKTNV-11" edge="1">
          <mxGeometry x="0.3333" y="20" relative="1" as="geometry">
            <mxPoint as="offset" />
          </mxGeometry>
        </mxCell>
        <mxCell id="WIyWlLk6GJQsqaUBKTNV-9" value="Yes" style="edgeStyle=orthogonalEdgeStyle;rounded=0;html=1;jettySize=auto;orthogonalLoop=1;fontSize=11;endArrow=block;endFill=0;endSize=8;strokeWidth=1;shadow=0;labelBackgroundColor=none;" parent="WIyWlLk6GJQsqaUBKTNV-1" source="WIyWlLk6GJQsqaUBKTNV-10" target="WIyWlLk6GJQsqaUBKTNV-12" edge="1">
          <mxGeometry y="10" relative="1" as="geometry">
            <mxPoint as="offset" />
          </mxGeometry>
        </mxCell>
        <mxCell id="WIyWlLk6GJQsqaUBKTNV-10" value="Bulb&lt;br&gt;burned out?" style="rhombus;whiteSpace=wrap;html=1;shadow=0;fontFamily=Helvetica;fontSize=12;align=center;strokeWidth=1;spacing=6;spacingTop=-4;" parent="WIyWlLk6GJQsqaUBKTNV-1" vertex="1">
          <mxGeometry x="170" y="290" width="100" height="80" as="geometry" />
        </mxCell>
        <mxCell id="WIyWlLk6GJQsqaUBKTNV-11" value="Repair Lamp" style="rounded=1;whiteSpace=wrap;html=1;fontSize=12;glass=0;strokeWidth=1;shadow=0;" parent="WIyWlLk6GJQsqaUBKTNV-1" vertex="1">
          <mxGeometry x="160" y="430" width="120" height="40" as="geometry" />
        </mxCell>
        <mxCell id="WIyWlLk6GJQsqaUBKTNV-12" value="Replace Bulb" style="rounded=1;whiteSpace=wrap;html=1;fontSize=12;glass=0;strokeWidth=1;shadow=0;" parent="WIyWlLk6GJQsqaUBKTNV-1" vertex="1">
          <mxGeometry x="320" y="310" width="120" height="40" as="geometry" />
        </mxCell>
        <mxCell id="ijvyQktE0aWH16FiOcsG-3" style="edgeStyle=orthogonalEdgeStyle;rounded=0;orthogonalLoop=1;jettySize=auto;html=1;exitX=0.5;exitY=1;exitDx=0;exitDy=0;exitPerimeter=0;entryX=0.5;entryY=0;entryDx=0;entryDy=0;" parent="WIyWlLk6GJQsqaUBKTNV-1" source="ijvyQktE0aWH16FiOcsG-4" target="ijvyQktE0aWH16FiOcsG-6" edge="1">
          <mxGeometry relative="1" as="geometry" />
        </mxCell>
        <mxCell id="ijvyQktE0aWH16FiOcsG-4" value="" style="strokeWidth=2;html=1;shape=mxgraph.flowchart.start_2;whiteSpace=wrap;aspect=fixed;" parent="WIyWlLk6GJQsqaUBKTNV-1" vertex="1">
          <mxGeometry x="784" y="-6" width="50" height="50" as="geometry" />
        </mxCell>
        <mxCell id="ijvyQktE0aWH16FiOcsG-5" style="edgeStyle=orthogonalEdgeStyle;rounded=0;orthogonalLoop=1;jettySize=auto;html=1;exitX=0.5;exitY=1;exitDx=0;exitDy=0;entryX=0.5;entryY=0;entryDx=0;entryDy=0;" parent="WIyWlLk6GJQsqaUBKTNV-1" source="ijvyQktE0aWH16FiOcsG-6" target="ijvyQktE0aWH16FiOcsG-8" edge="1">
          <mxGeometry relative="1" as="geometry" />
        </mxCell>
        <mxCell id="ijvyQktE0aWH16FiOcsG-6" value="选择对应项目" style="rounded=1;whiteSpace=wrap;html=1;fontSize=12;glass=0;strokeWidth=1;shadow=0;" parent="WIyWlLk6GJQsqaUBKTNV-1" vertex="1">
          <mxGeometry x="749" y="86" width="120" height="40" as="geometry" />
        </mxCell>
        <mxCell id="ijvyQktE0aWH16FiOcsG-7" style="edgeStyle=orthogonalEdgeStyle;rounded=0;orthogonalLoop=1;jettySize=auto;html=1;exitX=0.5;exitY=1;exitDx=0;exitDy=0;entryX=0.5;entryY=0;entryDx=0;entryDy=0;" parent="WIyWlLk6GJQsqaUBKTNV-1" source="ijvyQktE0aWH16FiOcsG-8" target="ijvyQktE0aWH16FiOcsG-10" edge="1">
          <mxGeometry relative="1" as="geometry" />
        </mxCell>
        <mxCell id="ijvyQktE0aWH16FiOcsG-8" value="点击项目设置" style="rounded=1;whiteSpace=wrap;html=1;fontSize=12;glass=0;strokeWidth=1;shadow=0;" parent="WIyWlLk6GJQsqaUBKTNV-1" vertex="1">
          <mxGeometry x="749" y="163" width="120" height="40" as="geometry" />
        </mxCell>
        <mxCell id="ijvyQktE0aWH16FiOcsG-9" style="edgeStyle=orthogonalEdgeStyle;rounded=0;orthogonalLoop=1;jettySize=auto;html=1;exitX=0.5;exitY=1;exitDx=0;exitDy=0;entryX=0.5;entryY=0;entryDx=0;entryDy=0;" parent="WIyWlLk6GJQsqaUBKTNV-1" source="ijvyQktE0aWH16FiOcsG-10" target="ijvyQktE0aWH16FiOcsG-18" edge="1">
          <mxGeometry relative="1" as="geometry" />
        </mxCell>
        <mxCell id="ijvyQktE0aWH16FiOcsG-10" value="点击公共工作流" style="rounded=1;whiteSpace=wrap;html=1;fontSize=12;glass=0;strokeWidth=1;shadow=0;" parent="WIyWlLk6GJQsqaUBKTNV-1" vertex="1">
          <mxGeometry x="749" y="238" width="120" height="40" as="geometry" />
        </mxCell>
        <mxCell id="ijvyQktE0aWH16FiOcsG-11" style="edgeStyle=orthogonalEdgeStyle;rounded=0;orthogonalLoop=1;jettySize=auto;html=1;exitX=0.5;exitY=1;exitDx=0;exitDy=0;entryX=0.5;entryY=0;entryDx=0;entryDy=0;" parent="WIyWlLk6GJQsqaUBKTNV-1" source="ijvyQktE0aWH16FiOcsG-12" edge="1" target="fLVtpyb-fq-U4lBU-cG4-1">
          <mxGeometry relative="1" as="geometry">
            <mxPoint x="1217" y="76" as="targetPoint" />
            <Array as="points">
              <mxPoint x="809" y="632" />
              <mxPoint x="906" y="632" />
              <mxPoint x="906" y="2" />
              <mxPoint x="1217" y="2" />
              <mxPoint x="1217" y="28" />
            </Array>
          </mxGeometry>
        </mxCell>
        <mxCell id="ijvyQktE0aWH16FiOcsG-12" value="编辑并行工作流" style="rounded=1;whiteSpace=wrap;html=1;fontSize=12;glass=0;strokeWidth=1;shadow=0;" parent="WIyWlLk6GJQsqaUBKTNV-1" vertex="1">
          <mxGeometry x="749" y="572" width="120" height="40" as="geometry" />
        </mxCell>
        <mxCell id="ijvyQktE0aWH16FiOcsG-13" style="edgeStyle=orthogonalEdgeStyle;rounded=0;orthogonalLoop=1;jettySize=auto;html=1;exitX=0.5;exitY=1;exitDx=0;exitDy=0;entryX=0;entryY=0.5;entryDx=0;entryDy=0;" parent="WIyWlLk6GJQsqaUBKTNV-1" source="ijvyQktE0aWH16FiOcsG-14" target="ijvyQktE0aWH16FiOcsG-12" edge="1">
          <mxGeometry relative="1" as="geometry" />
        </mxCell>
        <mxCell id="ijvyQktE0aWH16FiOcsG-14" value="create_new_workflow&lt;div&gt;创建新并行工作流&lt;/div&gt;" style="rounded=1;whiteSpace=wrap;html=1;fontSize=12;glass=0;strokeWidth=1;shadow=0;" parent="WIyWlLk6GJQsqaUBKTNV-1" vertex="1">
          <mxGeometry x="597" y="386" width="120" height="40" as="geometry" />
        </mxCell>
        <mxCell id="ijvyQktE0aWH16FiOcsG-15" style="edgeStyle=orthogonalEdgeStyle;rounded=0;orthogonalLoop=1;jettySize=auto;html=1;exitX=0.5;exitY=1;exitDx=0;exitDy=0;entryX=0.5;entryY=0;entryDx=0;entryDy=0;" parent="WIyWlLk6GJQsqaUBKTNV-1" source="ijvyQktE0aWH16FiOcsG-16" target="ijvyQktE0aWH16FiOcsG-12" edge="1">
          <mxGeometry relative="1" as="geometry" />
        </mxCell>
        <mxCell id="ijvyQktE0aWH16FiOcsG-16" value="修改现存并行工作流" style="rounded=1;whiteSpace=wrap;html=1;fontSize=12;glass=0;strokeWidth=1;shadow=0;" parent="WIyWlLk6GJQsqaUBKTNV-1" vertex="1">
          <mxGeometry x="751" y="501" width="120" height="40" as="geometry" />
        </mxCell>
        <mxCell id="ijvyQktE0aWH16FiOcsG-17" style="edgeStyle=orthogonalEdgeStyle;rounded=0;orthogonalLoop=1;jettySize=auto;html=1;exitX=0.5;exitY=1;exitDx=0;exitDy=0;entryX=0.5;entryY=0;entryDx=0;entryDy=0;" parent="WIyWlLk6GJQsqaUBKTNV-1" source="ijvyQktE0aWH16FiOcsG-18" target="ijvyQktE0aWH16FiOcsG-23" edge="1">
          <mxGeometry relative="1" as="geometry" />
        </mxCell>
        <mxCell id="ijvyQktE0aWH16FiOcsG-18" value="调用CommonWorkflowService获取对应项目需求的工作流信息" style="rounded=1;whiteSpace=wrap;html=1;fontSize=12;glass=0;strokeWidth=1;shadow=0;" parent="WIyWlLk6GJQsqaUBKTNV-1" vertex="1">
          <mxGeometry x="727" y="303.5" width="168" height="40" as="geometry" />
        </mxCell>
        <mxCell id="ijvyQktE0aWH16FiOcsG-19" style="edgeStyle=orthogonalEdgeStyle;rounded=0;orthogonalLoop=1;jettySize=auto;html=1;exitX=0.5;exitY=1;exitDx=0;exitDy=0;entryX=0.5;entryY=0;entryDx=0;entryDy=0;" parent="WIyWlLk6GJQsqaUBKTNV-1" source="ijvyQktE0aWH16FiOcsG-23" target="ijvyQktE0aWH16FiOcsG-16" edge="1">
          <mxGeometry relative="1" as="geometry" />
        </mxCell>
        <mxCell id="ijvyQktE0aWH16FiOcsG-20" value="Yes" style="edgeLabel;html=1;align=center;verticalAlign=middle;resizable=0;points=[];" parent="ijvyQktE0aWH16FiOcsG-19" vertex="1" connectable="0">
          <mxGeometry x="-0.1273" y="-1" relative="1" as="geometry">
            <mxPoint as="offset" />
          </mxGeometry>
        </mxCell>
        <mxCell id="ijvyQktE0aWH16FiOcsG-21" style="edgeStyle=orthogonalEdgeStyle;rounded=0;orthogonalLoop=1;jettySize=auto;html=1;exitX=0;exitY=0.5;exitDx=0;exitDy=0;entryX=1;entryY=0.5;entryDx=0;entryDy=0;" parent="WIyWlLk6GJQsqaUBKTNV-1" source="ijvyQktE0aWH16FiOcsG-23" target="ijvyQktE0aWH16FiOcsG-14" edge="1">
          <mxGeometry relative="1" as="geometry" />
        </mxCell>
        <mxCell id="ijvyQktE0aWH16FiOcsG-22" value="No" style="edgeLabel;html=1;align=center;verticalAlign=middle;resizable=0;points=[];" parent="ijvyQktE0aWH16FiOcsG-21" vertex="1" connectable="0">
          <mxGeometry x="-0.1604" y="-2" relative="1" as="geometry">
            <mxPoint as="offset" />
          </mxGeometry>
        </mxCell>
        <mxCell id="ijvyQktE0aWH16FiOcsG-23" value="传入workflow_id" style="rhombus;whiteSpace=wrap;html=1;shadow=0;fontFamily=Helvetica;fontSize=12;align=center;strokeWidth=1;spacing=6;spacingTop=-4;" parent="WIyWlLk6GJQsqaUBKTNV-1" vertex="1">
          <mxGeometry x="761" y="366" width="100" height="80" as="geometry" />
        </mxCell>
        <mxCell id="ijvyQktE0aWH16FiOcsG-24" value="" style="endArrow=none;html=1;rounded=0;strokeWidth=4;" parent="WIyWlLk6GJQsqaUBKTNV-1" edge="1">
          <mxGeometry width="50" height="50" relative="1" as="geometry">
            <mxPoint x="948" y="156" as="sourcePoint" />
            <mxPoint x="1497" y="156" as="targetPoint" />
          </mxGeometry>
        </mxCell>
        <mxCell id="ijvyQktE0aWH16FiOcsG-69" value="" style="endArrow=classic;html=1;rounded=0;entryX=0.5;entryY=0;entryDx=0;entryDy=0;exitX=0.5;exitY=1;exitDx=0;exitDy=0;entryPerimeter=0;" parent="WIyWlLk6GJQsqaUBKTNV-1" edge="1" target="ijvyQktE0aWH16FiOcsG-1" source="49A24pzIiJAgQysdjWnC-16">
          <mxGeometry width="50" height="50" relative="1" as="geometry">
            <mxPoint x="1218.7" y="604" as="sourcePoint" />
            <mxPoint x="1218.7" y="634" as="targetPoint" />
          </mxGeometry>
        </mxCell>
        <mxCell id="ijvyQktE0aWH16FiOcsG-72" value="" style="endArrow=classic;html=1;rounded=0;" parent="WIyWlLk6GJQsqaUBKTNV-1" edge="1">
          <mxGeometry width="50" height="50" relative="1" as="geometry">
            <mxPoint x="983" y="96" as="sourcePoint" />
            <mxPoint x="983" y="120" as="targetPoint" />
          </mxGeometry>
        </mxCell>
        <mxCell id="49A24pzIiJAgQysdjWnC-1" style="edgeStyle=orthogonalEdgeStyle;rounded=0;orthogonalLoop=1;jettySize=auto;html=1;exitX=0.5;exitY=1;exitDx=0;exitDy=0;" edge="1" parent="WIyWlLk6GJQsqaUBKTNV-1" source="fLVtpyb-fq-U4lBU-cG4-0">
          <mxGeometry relative="1" as="geometry">
            <mxPoint x="1219" y="157" as="targetPoint" />
          </mxGeometry>
        </mxCell>
        <mxCell id="fLVtpyb-fq-U4lBU-cG4-0" value="初始化状态以及节点" style="rounded=1;whiteSpace=wrap;html=1;fontSize=12;glass=0;strokeWidth=1;shadow=0;" parent="WIyWlLk6GJQsqaUBKTNV-1" vertex="1">
          <mxGeometry x="1139.5" y="99" width="159" height="40" as="geometry" />
        </mxCell>
        <mxCell id="49A24pzIiJAgQysdjWnC-0" style="edgeStyle=orthogonalEdgeStyle;rounded=0;orthogonalLoop=1;jettySize=auto;html=1;exitX=0.5;exitY=1;exitDx=0;exitDy=0;entryX=0.5;entryY=0;entryDx=0;entryDy=0;" edge="1" parent="WIyWlLk6GJQsqaUBKTNV-1" source="fLVtpyb-fq-U4lBU-cG4-1" target="fLVtpyb-fq-U4lBU-cG4-0">
          <mxGeometry relative="1" as="geometry" />
        </mxCell>
        <mxCell id="fLVtpyb-fq-U4lBU-cG4-1" value="调用workflow_status_service获取状态池现存状态" style="rounded=1;whiteSpace=wrap;html=1;fontSize=12;glass=0;strokeWidth=1;shadow=0;" parent="WIyWlLk6GJQsqaUBKTNV-1" vertex="1">
          <mxGeometry x="1137" y="34" width="159" height="40" as="geometry" />
        </mxCell>
        <mxCell id="fLVtpyb-fq-U4lBU-cG4-2" value="新建后置节点" style="rounded=1;whiteSpace=wrap;html=1;fontSize=12;glass=0;strokeWidth=1;shadow=0;" parent="WIyWlLk6GJQsqaUBKTNV-1" vertex="1">
          <mxGeometry x="1397" y="190" width="159" height="40" as="geometry" />
        </mxCell>
        <mxCell id="fLVtpyb-fq-U4lBU-cG4-3" value="编辑现存节点" style="rounded=1;whiteSpace=wrap;html=1;fontSize=12;glass=0;strokeWidth=1;shadow=0;" parent="WIyWlLk6GJQsqaUBKTNV-1" vertex="1">
          <mxGeometry x="1194" y="190" width="159" height="40" as="geometry" />
        </mxCell>
        <mxCell id="49A24pzIiJAgQysdjWnC-2" value="配置节点流转条件" style="rounded=1;whiteSpace=wrap;html=1;fontSize=12;glass=0;strokeWidth=1;shadow=0;" vertex="1" parent="WIyWlLk6GJQsqaUBKTNV-1">
          <mxGeometry x="1190" y="303.5" width="94" height="40" as="geometry" />
        </mxCell>
        <mxCell id="49A24pzIiJAgQysdjWnC-3" value="配置节点流转权限" style="rounded=1;whiteSpace=wrap;html=1;fontSize=12;glass=0;strokeWidth=1;shadow=0;" vertex="1" parent="WIyWlLk6GJQsqaUBKTNV-1">
          <mxGeometry x="1314" y="303.5" width="101" height="40" as="geometry" />
        </mxCell>
        <mxCell id="49A24pzIiJAgQysdjWnC-4" value="配置节点流转填写字段" style="rounded=1;whiteSpace=wrap;html=1;fontSize=12;glass=0;strokeWidth=1;shadow=0;" vertex="1" parent="WIyWlLk6GJQsqaUBKTNV-1">
          <mxGeometry x="1445" y="302" width="101" height="40" as="geometry" />
        </mxCell>
        <mxCell id="49A24pzIiJAgQysdjWnC-5" value="" style="endArrow=none;html=1;rounded=0;strokeWidth=4;" edge="1" parent="WIyWlLk6GJQsqaUBKTNV-1">
          <mxGeometry width="50" height="50" relative="1" as="geometry">
            <mxPoint x="1210" y="258" as="sourcePoint" />
            <mxPoint x="1528" y="260" as="targetPoint" />
          </mxGeometry>
        </mxCell>
        <mxCell id="49A24pzIiJAgQysdjWnC-6" value="" style="endArrow=classic;html=1;rounded=0;exitX=0.5;exitY=1;exitDx=0;exitDy=0;" edge="1" parent="WIyWlLk6GJQsqaUBKTNV-1" source="fLVtpyb-fq-U4lBU-cG4-3">
          <mxGeometry width="50" height="50" relative="1" as="geometry">
            <mxPoint x="1277" y="221" as="sourcePoint" />
            <mxPoint x="1274" y="254" as="targetPoint" />
          </mxGeometry>
        </mxCell>
        <mxCell id="49A24pzIiJAgQysdjWnC-7" value="" style="endArrow=classic;html=1;rounded=0;exitX=0.5;exitY=1;exitDx=0;exitDy=0;" edge="1" parent="WIyWlLk6GJQsqaUBKTNV-1" source="fLVtpyb-fq-U4lBU-cG4-2">
          <mxGeometry width="50" height="50" relative="1" as="geometry">
            <mxPoint x="1479" y="215" as="sourcePoint" />
            <mxPoint x="1477" y="256" as="targetPoint" />
          </mxGeometry>
        </mxCell>
        <mxCell id="49A24pzIiJAgQysdjWnC-8" value="" style="endArrow=classic;html=1;rounded=0;entryX=0.5;entryY=0;entryDx=0;entryDy=0;" edge="1" parent="WIyWlLk6GJQsqaUBKTNV-1" target="49A24pzIiJAgQysdjWnC-2">
          <mxGeometry width="50" height="50" relative="1" as="geometry">
            <mxPoint x="1237" y="265" as="sourcePoint" />
            <mxPoint x="1246" y="306" as="targetPoint" />
          </mxGeometry>
        </mxCell>
        <mxCell id="49A24pzIiJAgQysdjWnC-10" value="" style="endArrow=classic;html=1;rounded=0;entryX=0.5;entryY=0;entryDx=0;entryDy=0;" edge="1" parent="WIyWlLk6GJQsqaUBKTNV-1" target="49A24pzIiJAgQysdjWnC-3">
          <mxGeometry width="50" height="50" relative="1" as="geometry">
            <mxPoint x="1365" y="264" as="sourcePoint" />
            <mxPoint x="1247" y="314" as="targetPoint" />
          </mxGeometry>
        </mxCell>
        <mxCell id="49A24pzIiJAgQysdjWnC-11" value="" style="endArrow=classic;html=1;rounded=0;entryX=0.5;entryY=0;entryDx=0;entryDy=0;" edge="1" parent="WIyWlLk6GJQsqaUBKTNV-1" target="49A24pzIiJAgQysdjWnC-4">
          <mxGeometry width="50" height="50" relative="1" as="geometry">
            <mxPoint x="1496" y="263" as="sourcePoint" />
            <mxPoint x="1375" y="314" as="targetPoint" />
          </mxGeometry>
        </mxCell>
        <mxCell id="49A24pzIiJAgQysdjWnC-12" value="" style="endArrow=none;html=1;rounded=0;strokeWidth=4;" edge="1" parent="WIyWlLk6GJQsqaUBKTNV-1">
          <mxGeometry width="50" height="50" relative="1" as="geometry">
            <mxPoint x="1213" y="389" as="sourcePoint" />
            <mxPoint x="1531" y="391" as="targetPoint" />
          </mxGeometry>
        </mxCell>
        <mxCell id="49A24pzIiJAgQysdjWnC-13" value="" style="endArrow=classic;html=1;rounded=0;exitX=0.5;exitY=1;exitDx=0;exitDy=0;" edge="1" parent="WIyWlLk6GJQsqaUBKTNV-1" source="49A24pzIiJAgQysdjWnC-2">
          <mxGeometry width="50" height="50" relative="1" as="geometry">
            <mxPoint x="1247" y="275" as="sourcePoint" />
            <mxPoint x="1237" y="383" as="targetPoint" />
          </mxGeometry>
        </mxCell>
        <mxCell id="49A24pzIiJAgQysdjWnC-14" value="" style="endArrow=classic;html=1;rounded=0;exitX=0.5;exitY=1;exitDx=0;exitDy=0;" edge="1" parent="WIyWlLk6GJQsqaUBKTNV-1" source="49A24pzIiJAgQysdjWnC-3">
          <mxGeometry width="50" height="50" relative="1" as="geometry">
            <mxPoint x="1247" y="354" as="sourcePoint" />
            <mxPoint x="1365" y="384" as="targetPoint" />
          </mxGeometry>
        </mxCell>
        <mxCell id="49A24pzIiJAgQysdjWnC-15" value="" style="endArrow=classic;html=1;rounded=0;exitX=0.446;exitY=0.975;exitDx=0;exitDy=0;exitPerimeter=0;" edge="1" parent="WIyWlLk6GJQsqaUBKTNV-1" source="49A24pzIiJAgQysdjWnC-4">
          <mxGeometry width="50" height="50" relative="1" as="geometry">
            <mxPoint x="1375" y="354" as="sourcePoint" />
            <mxPoint x="1490" y="385" as="targetPoint" />
          </mxGeometry>
        </mxCell>
        <mxCell id="49A24pzIiJAgQysdjWnC-16" value="保存工作流配置" style="rounded=1;whiteSpace=wrap;html=1;fontSize=12;glass=0;strokeWidth=1;shadow=0;" vertex="1" parent="WIyWlLk6GJQsqaUBKTNV-1">
          <mxGeometry x="1137" y="550" width="159" height="40" as="geometry" />
        </mxCell>
        <mxCell id="49A24pzIiJAgQysdjWnC-26" style="edgeStyle=orthogonalEdgeStyle;rounded=0;orthogonalLoop=1;jettySize=auto;html=1;exitX=0.5;exitY=1;exitDx=0;exitDy=0;" edge="1" parent="WIyWlLk6GJQsqaUBKTNV-1" source="49A24pzIiJAgQysdjWnC-17" target="49A24pzIiJAgQysdjWnC-16">
          <mxGeometry relative="1" as="geometry">
            <Array as="points">
              <mxPoint x="1048" y="512" />
              <mxPoint x="1217" y="512" />
            </Array>
          </mxGeometry>
        </mxCell>
        <mxCell id="49A24pzIiJAgQysdjWnC-17" value="新建状态" style="rounded=1;whiteSpace=wrap;html=1;fontSize=12;glass=0;strokeWidth=1;shadow=0;" vertex="1" parent="WIyWlLk6GJQsqaUBKTNV-1">
          <mxGeometry x="968" y="192" width="159" height="40" as="geometry" />
        </mxCell>
        <mxCell id="49A24pzIiJAgQysdjWnC-18" value="" style="endArrow=classic;html=1;rounded=0;entryX=0.5;entryY=0;entryDx=0;entryDy=0;" edge="1" parent="WIyWlLk6GJQsqaUBKTNV-1" target="49A24pzIiJAgQysdjWnC-17">
          <mxGeometry width="50" height="50" relative="1" as="geometry">
            <mxPoint x="1048" y="163" as="sourcePoint" />
            <mxPoint x="1040" y="190" as="targetPoint" />
          </mxGeometry>
        </mxCell>
        <mxCell id="49A24pzIiJAgQysdjWnC-19" value="" style="endArrow=classic;html=1;rounded=0;entryX=0.5;entryY=0;entryDx=0;entryDy=0;" edge="1" parent="WIyWlLk6GJQsqaUBKTNV-1">
          <mxGeometry width="50" height="50" relative="1" as="geometry">
            <mxPoint x="1273" y="158" as="sourcePoint" />
            <mxPoint x="1273" y="187" as="targetPoint" />
          </mxGeometry>
        </mxCell>
        <mxCell id="49A24pzIiJAgQysdjWnC-20" value="" style="endArrow=classic;html=1;rounded=0;entryX=0.5;entryY=0;entryDx=0;entryDy=0;" edge="1" parent="WIyWlLk6GJQsqaUBKTNV-1">
          <mxGeometry width="50" height="50" relative="1" as="geometry">
            <mxPoint x="1476" y="161" as="sourcePoint" />
            <mxPoint x="1476" y="190" as="targetPoint" />
          </mxGeometry>
        </mxCell>
        <mxCell id="49A24pzIiJAgQysdjWnC-25" style="edgeStyle=orthogonalEdgeStyle;rounded=0;orthogonalLoop=1;jettySize=auto;html=1;exitX=0.5;exitY=1;exitDx=0;exitDy=0;" edge="1" parent="WIyWlLk6GJQsqaUBKTNV-1" source="49A24pzIiJAgQysdjWnC-21" target="49A24pzIiJAgQysdjWnC-16">
          <mxGeometry relative="1" as="geometry">
            <Array as="points">
              <mxPoint x="1370" y="513" />
              <mxPoint x="1217" y="513" />
            </Array>
          </mxGeometry>
        </mxCell>
        <mxCell id="49A24pzIiJAgQysdjWnC-21" value="保存节点配置" style="rounded=1;whiteSpace=wrap;html=1;fontSize=12;glass=0;strokeWidth=1;shadow=0;" vertex="1" parent="WIyWlLk6GJQsqaUBKTNV-1">
          <mxGeometry x="1290" y="435" width="159" height="40" as="geometry" />
        </mxCell>
        <mxCell id="49A24pzIiJAgQysdjWnC-22" value="" style="endArrow=classic;html=1;rounded=0;entryX=0.5;entryY=0;entryDx=0;entryDy=0;" edge="1" parent="WIyWlLk6GJQsqaUBKTNV-1">
          <mxGeometry width="50" height="50" relative="1" as="geometry">
            <mxPoint x="1364" y="395" as="sourcePoint" />
            <mxPoint x="1364" y="435" as="targetPoint" />
          </mxGeometry>
        </mxCell>
        <mxCell id="ijvyQktE0aWH16FiOcsG-2" value="" style="strokeWidth=2;html=1;shape=mxgraph.flowchart.start_2;whiteSpace=wrap;aspect=fixed;fillColor=#000000;" parent="WIyWlLk6GJQsqaUBKTNV-1" vertex="1">
          <mxGeometry x="1201" y="643.5" width="31" height="31" as="geometry" />
        </mxCell>
      </root>
    </mxGraphModel>
  </diagram>
</mxfile>
